<svg
   version="1.1"
   id="Layer_1"
   xmlns="http://www.w3.org/2000/svg"
   viewBox="0 0 1048576 1048576"
   width="1048576"
   height="1048576">
  <path
     id="path55"
     style="display:inline;fill:currentColor;fill-opacity:1;stroke-width:2.36007"
     d="m 364.97881,43.90175 c -10.40486,0.671825 -20.94622,3.732426 -32.79679,10.265425 -31.60155,17.421366 -54.69529,60.365595 -61.17765,74.950925 -6.48237,14.58533 -55.50531,45.78179 -76.16787,95.20982 -20.66255,49.42808 -25.11467,55.91018 -26.73526,91.15805 -1.62058,35.24786 -2.13883,625.4531 -2.13883,625.4531 0,0 -1.62105,16.39054 13.95767,16.5528 15.57866,0.16238 423.05793,0.48865 423.05793,0.48865 0,0 96.19216,-2.0376 155.77439,-54.95021 59.58227,-52.9126 73.81239,-123.61373 73.81239,-123.61373 v -106.7152 c 0,0 -33.79446,-86.2605 -68.03203,-109.82661 -34.23756,-23.5661 -40.90955,-23.56393 -40.90955,-23.56393 0,0 -2.66357,-5.3368 -18.22609,8.89178 -15.5625,14.2286 -43.57848,13.33997 -43.57848,13.33997 L 532.10188,539.64274 c 0,0 -18.12365,-5.6721 -0.11068,-6.11685 18.01301,-0.44478 96.74016,-0.11067 96.74016,-0.11067 0,0 63.20182,-5.83988 89.80746,-22.158 26.60564,-16.31813 55.34329,-38.31496 74.85414,-73.4344 19.5108,-35.11946 29.79521,-74.13849 28.37625,-97.55147 -1.41898,-23.41296 -33.68279,-22.38505 -47.6487,-25.94241 -13.96594,-3.55734 -54.67714,-4.21757 -59.02503,-24.11244 -4.34787,-19.89486 -22.73558,-79.25734 -54.3371,-106.80739 -31.60154,-27.55007 -69.28154,-44.16368 -92.37497,-47.81003 -23.09343,-3.64632 -84.674,4.4576 -93.58723,-18.23069 C 465.88292,94.680113 456.56428,66.723613 421.31641,55.379438 399.2865,48.289367 382.3202,42.782023 364.97874,43.901724 Z m 251.07643,235.88342 c 9.35661,-0.23058 18.54896,4.06922 24.74395,11.53765 9.33008,11.24794 10.60221,25.80695 3.35573,38.34668 -6.75395,11.6875 -20.43634,17.31567 -34.51155,14.19733 -12.46917,-2.76255 -22.10081,-14.23937 -23.91423,-29.39957 -0.13545,-16.25519 6.48002,-27.48319 21.01946,-32.88899 3.05047,-1.13419 6.18777,-1.71625 9.30664,-1.7931 z" />
</svg>