<?xml version="1.0" encoding="UTF-8" standalone="no"?>
<svg
   version="1.1"
   id="Layer_1"
   x="0px"
   y="0px"
   width="100%"
   viewBox="0 0 1024 1024"
   enable-background="new 0 0 1024 1024"
   xml:space="preserve"
   sodipodi:docname="file2.svg"
   inkscape:export-filename="bearlogo.png"
   inkscape:export-xdpi="96"
   inkscape:export-ydpi="96"
   inkscape:version="1.3.2 (091e20e, 2023-11-25)"
   xmlns:inkscape="http://www.inkscape.org/namespaces/inkscape"
   xmlns:sodipodi="http://sodipodi.sourceforge.net/DTD/sodipodi-0.dtd"
   xmlns="http://www.w3.org/2000/svg"
   xmlns:svg="http://www.w3.org/2000/svg"><defs
   id="defs28" /><sodipodi:namedview
   id="namedview28"
   pagecolor="#505050"
   bordercolor="#eeeeee"
   borderopacity="1"
   inkscape:showpageshadow="0"
   inkscape:pageopacity="0"
   inkscape:pagecheckerboard="0"
   inkscape:deskcolor="#505050"
   inkscape:zoom="0.21487355"
   inkscape:cx="-798.14385"
   inkscape:cy="-4.6539"
   inkscape:window-width="1440"
   inkscape:window-height="777"
   inkscape:window-x="0"
   inkscape:window-y="25"
   inkscape:window-maximized="0"
   inkscape:current-layer="Layer_1" />
<path
   id="path55"
   style="display:inline;fill:#ffffff;fill-opacity:1;stroke:#000000;stroke-width:2;stroke-dasharray:none;stroke-opacity:1"
   inkscape:label="body"
   d="m 332.18202,54.167175 c -43.72963,41.215057 -53.88007,63.366955 -64.86025,74.950925 -32.52761,34.31629 -36.92313,55.1423 -72.48527,95.20982 -27.19673,30.6423 -25.11467,55.91018 -26.73526,91.15805 -1.62058,35.24786 -2.13883,625.4531 -2.13883,625.4531 0,0 -1.62105,16.39054 13.95767,16.5528 15.57866,0.16238 423.05793,0.48865 423.05793,0.48865 0,0 117.0521,14.69439 155.77439,-54.95021 69.78372,-125.51064 82.41161,-162.78419 22.78247,-266.55893 -20.7077,-36.03835 -28.33473,-56.44689 -28.33473,-56.44689 -34.30064,-11.88674 -27.04883,13.86722 -91.3815,23.03622 l -151.68685,-8.18406 c -11.38857,-31.00223 -3.11324,-43.82315 21.85941,-61.35076 14.74835,-10.35145 96.74016,-0.11067 96.74016,-0.11067 0,0 63.20182,-5.83988 89.80746,-22.158 26.60564,-16.31813 55.34329,-38.31496 74.85414,-73.4344 19.5108,-35.11946 29.79521,-74.13849 28.37625,-97.55147 -1.41898,-23.41296 -33.68279,-22.38505 -47.6487,-25.94241 C 760.15457,310.7716 719.44337,310.11137 715.09548,290.2165 710.74761,270.32164 692.3599,210.95916 660.75838,183.40911 629.15684,155.85904 591.47684,139.24543 568.38341,135.59908 545.28998,131.95276 430.16004,144.09542 423.7001,120.59067 393.30225,9.986929 363.65392,24.504991 332.18202,54.167175 Z M 616.05524,279.78517 c 9.35661,-0.23058 18.54896,4.06922 24.74395,11.53765 9.33008,11.24794 10.60221,25.80695 3.35573,38.34668 -6.75395,11.6875 -20.43634,17.31567 -34.51155,14.19733 -12.46917,-2.76255 -22.10081,-14.23937 -23.91423,-29.39957 -0.13545,-16.25519 6.48002,-27.48319 21.01946,-32.88899 3.05047,-1.13419 6.18777,-1.71625 9.30664,-1.7931 z"
   sodipodi:nodetypes="sssscscsscccscssssssssssssscss" />



























<path
   style="fill:#ffffff;stroke:#000000;stroke-width:2.03536;stroke-dasharray:none"
   d="m 753.09458,579.99863 c -69.51832,149.51844 6.83786,320.55847 6.83786,320.55847"
   id="path2" /><path
   style="fill:#ffffff;stroke:#000000;stroke-width:2;stroke-dasharray:none"
   d="m 780.61972,457.46757 c 0,0 -42.66732,-67.02366 -34.64372,-109.61047 7.38309,-39.18717 28.11253,-33.79183 28.11253,-33.79183"
   id="path3"
   sodipodi:nodetypes="csc" /></svg>
